<svg xmlns="http://www.w3.org/2000/svg" width="24" height="17" viewBox="0 0 24 17">
    <defs>
        <linearGradient id="prefix__a" x1="3.308%" x2="96.911%" y1="61.445%" y2="40.017%">
            <stop offset=".066%" stop-color="#FF2360"/>
            <stop offset="100%" stop-color="#FF710A"/>
        </linearGradient>
    </defs>
    <path fill="url(#prefix__a)" d="M21 0c.828 0 1.5.673 1.5 1.5V15h.75c.414 0 .75.336.75.75s-.336.75-.75.75H.75c-.414 0-.75-.336-.75-.75S.336 15 .75 15h.75V1.5C1.5.673 2.174 0 3 0h18zm0 1.5H3V15h18V1.5zM7.5 3c.414 0 .75.336.75.75s.336.75.75.75.75-.336.75-.75.336-.75.75-.75h2.25c.414 0 .75.336.75.75v3c0 .414-.336.75-.75.75H12v3.75c0 .414-.336.75-.75.75h-4.5c-.414 0-.75-.336-.75-.75V7.5h-.75c-.414 0-.75-.336-.75-.75v-3c0-.414.336-.75.75-.75H7.5zm-.622 1.5H6V6h.75c.414 0 .75.336.75.75v3.75h3V6.75c0-.414.336-.75.75-.75H12V4.5h-.877C10.812 5.373 9.978 6 9 6c-.978 0-1.812-.627-2.122-1.5zm11.872 3c.414 0 .75.336.75.75s-.336.75-.75.75h-3c-.414 0-.75-.336-.75-.75s.336-.75.75-.75h3zm0-3c.414 0 .75.336.75.75s-.336.75-.75.75h-3c-.414 0-.75-.336-.75-.75s.336-.75.75-.75h3z"/>
</svg>
