<svg width="16" height="16" viewBox="0 0 16 16" fill="none" xmlns="http://www.w3.org/2000/svg">
<path d="M8 16C9.46154 16 10.8141 15.6346 12.0577 14.9038C13.2628 14.2115 14.2115 13.2628 14.9038 12.0577C15.6346 10.8141 16 9.46154 16 8C16 6.53846 15.6346 5.1859 14.9038 3.94231C14.2115 2.73718 13.2628 1.78846 12.0577 1.09615C10.8141 0.365385 9.46154 0 8 0C6.55128 0 5.20513 0.365385 3.96154 1.09615C2.75641 1.80128 1.80128 2.75641 1.09615 3.96154C0.365385 5.20513 0 6.55128 0 8C0 9.44872 0.365385 10.7949 1.09615 12.0385C1.78846 13.2436 2.73718 14.1987 3.94231 14.9038C5.1859 15.6346 6.53846 16 8 16Z" fill="#FF414F"/>
<path d="M11.3995 5.71546L5.71543 11.3995L4.60037 10.2845L10.2844 4.60041L11.3995 5.71546Z" fill="#FFE5E5"/>
<path d="M10.2845 11.4L4.60049 5.71592L5.71554 4.60086L11.3996 10.2849L10.2845 11.4Z" fill="#FFE5E5"/>
</svg>
