<svg xmlns="http://www.w3.org/2000/svg" width="26" height="13" viewBox="0 0 26 13">
    <defs>
        <linearGradient id="prefix__a" x1="3.308%" x2="96.911%" y1="55.472%" y2="45.227%">
            <stop offset=".066%" stop-color="#FF2360"/>
            <stop offset="100%" stop-color="#FF710A"/>
        </linearGradient>
    </defs>
    <path fill="url(#prefix__a)" d="M1.503.522L4.96.525c.174 0 .332.098.41.253.077.156.06.341-.044.48L3.25 4.022c-.087.115-.223.183-.366.183l-.042-.002c-.158-.015-.297-.11-.369-.252l-.104-.21c-.439.69-.694 1.506-.694 2.382 0 2.452 1.996 4.448 4.448 4.448 2.34 0 3.796-1.266 5.222-3.21l-.328 1.16c-.047.167.004.346.133.463.085.078.196.12.308.12.056 0 .112-.01.165-.031l.79-.305c-.437.563-.994 1.155-1.509 1.614-1.407 1.254-2.971 1.863-4.781 1.863C2.747 12.245 0 9.5 0 6.123c0-1.552.58-2.97 1.536-4.051l-.443-.887c-.07-.142-.063-.31.02-.446.084-.135.231-.217.39-.217zM19.638 0c1.635 0 3.173.637 4.33 1.793 1.156 1.157 1.793 2.694 1.793 4.33 0 3.376-2.747 6.123-6.123 6.123-.525 0-1.011-.063-1.464-.18.382-.239.637-.664.637-1.145 0-.154-.025-.303-.075-.447.284.063.584.097.902.097 2.452 0 4.448-1.996 4.448-4.448 0-2.453-1.996-4.448-4.448-4.448-.872 0-1.61.25-2.265.678l.492.448c.118.107.171.267.142.423-.029.156-.137.286-.285.343l-3.224 1.246c-.054.02-.11.03-.165.03-.113 0-.223-.04-.309-.119-.128-.117-.18-.296-.132-.463L14.83.934c.043-.152.162-.272.315-.316.152-.043.317-.005.434.102l.523.476C17.07.464 18.212 0 19.638 0zM6.123 0c1.81 0 3.374.61 4.782 1.864.865.77 1.595 1.717 2.29 2.733l1.003 1.526c.409.63.806 1.236 1.213 1.785l.496-.534c.108-.117.268-.169.424-.138.156.03.285.14.341.288l1.205 3.205c.026.06.042.124.041.192 0 .252-.202.456-.453.458-.049 0-.092-.006-.135-.018l-3.317-.969c-.153-.044-.271-.165-.314-.318-.042-.152-.002-.316.106-.433l.452-.486c-.371-.48-.722-.99-1.063-1.506L12.2 6.123c-1.735-2.628-3.271-4.448-6.077-4.448.233-.393.254-.878.046-1.295C6.098.237 6.004.11 5.893.005 5.97.002 6.046 0 6.123 0z"/>
</svg>
