<svg xmlns="http://www.w3.org/2000/svg" width="24" height="18" viewBox="0 0 24 18">
    <defs>
        <linearGradient id="prefix__a" x1="3.308%" x2="96.911%" y1="63.831%" y2="37.935%">
            <stop offset=".066%" stop-color="#FF2360"/>
            <stop offset="100%" stop-color="#FF710A"/>
        </linearGradient>
    </defs>
    <path fill="url(#prefix__a)" d="M12 .025c6.55 0 11.875 5.325 11.875 11.875 0 1.925-.45 3.85-1.35 5.525-.275.5-.875.675-1.375.425-.5-.275-.675-.875-.425-1.375C21.45 15.1 21.85 13.5 21.85 11.9c0-5.425-4.425-9.85-9.85-9.85S2.15 6.475 2.15 11.9c0 1.575.4 3.175 1.125 4.575.25.5.075 1.125-.425 1.375-.15.1-.325.125-.475.125-.375 0-.725-.2-.9-.55-.875-1.7-1.35-3.6-1.35-5.525C.125 5.35 5.45.025 12 .025zm4.825 5.95c.7-.425 1.475.35 1.05 1.025L14.2 13.2c-.45.775-1.275 1.25-2.15 1.25-1.4.025-2.525-1.1-2.55-2.5 0-.875.45-1.7 1.2-2.175zm2.65 4.85c.594 0 1.075.481 1.075 1.075s-.481 1.075-1.075 1.075S18.4 12.494 18.4 11.9s.481-1.075 1.075-1.075zM4.55 10.8c.594 0 1.075.481 1.075 1.075S5.144 12.95 4.55 12.95s-1.075-.481-1.075-1.075S3.956 10.8 4.55 10.8zm1.419-4.955c.42-.42 1.1-.42 1.52 0 .42.42.42 1.1 0 1.52-.42.42-1.1.42-1.52 0-.42-.42-.42-1.1 0-1.52zM12 3.35c.594 0 1.075.481 1.075 1.075S12.594 5.5 12 5.5s-1.075-.481-1.075-1.075S11.406 3.35 12 3.35z"/>
</svg>
