<svg width="182" height="240" viewBox="0 0 182 240" xmlns="http://www.w3.org/2000/svg"><title>Group 8</title><g fill="none" fill-rule="evenodd"><path d="M162.086 132.733l7.598-4.257c5.343-2.994 9.734-9.822 9.76-15.178l.162-34.546c.01-2.462-.906-4.198-2.42-5.067h.002l-81.065-46.53-.125-.073c-1.776-.98-4.347-.786-7.193.81l-7.698 4.31-.153.26v53.7l81.132 46.57" fill="#FFF"/><path d="M162.095 130.166l6.492-3.637c2.35-1.318 4.505-3.5 6.084-5.953 1.555-2.417 2.524-5.042 2.537-7.288l.16-52.625c.005-.86-.14-1.567-.403-2.122-.216-.45-.523-.79-.9-1.006-.046-.026-.09-.054-.132-.082l-72.158-41.42c-.094-.04-.183-.09-.272-.146-.476-.226-1.092-.306-1.816-.225-.905.1-1.946.457-3.076 1.09l-6.7 3.755v69.37l70.185 40.286zm8.687.257l-7.6 4.256v-.002c-.67.372-1.51.394-2.22-.016L88.68 93.172c-.75-.36-1.266-1.124-1.266-2.01V19.384h.007c-.002-.38.097-.766.3-1.12l.105-.178c.196-.37.496-.69.89-.91l7.7-4.313c1.66-.93 3.28-1.465 4.778-1.632 1.664-.185 3.188.08 4.48.762.052.025.102.053.153.083l.127.07-.002.005 72.173 41.427c.108.05.21.105.31.172l.05.034c1.084.665 1.947 1.627 2.535 2.86.54 1.127.832 2.484.824 4.04l-.16 52.624c-.015 3.108-1.253 6.576-3.238 9.66-1.957 3.048-4.67 5.778-7.662 7.455z" fill="#B3B4B4"/><path d="M98.315 66.73l.03-6.268 62.977 38.924 15.866-43.78-72.357-41.533-.126-.07c-1.774-.98-4.345-.787-7.19.807l-7.7 4.312-.15.26v35.33l-8.71 31.45 7.6-4.256c5.345-2.993 9.735-9.82 9.76-15.177" fill="#FFF"/><path d="M106.787 71.752l.03-6.267.003-.5.423.264 53.988 21.098 15.57-30.643-72.064-41.365-.125-.07c-.85-.47-1.906-.652-3.097-.52-1.164.13-2.458.566-3.82 1.33l-7.63 4.274-.076.13V90.71l7.18-4.022c2.633-1.474 5.032-3.897 6.777-6.61 1.744-2.708 2.83-5.705 2.843-8.326zm.586-5.77l-.027 5.772c-.013 2.73-1.134 5.828-2.93 8.623-1.793 2.788-4.26 5.278-6.973 6.797l-7.6 4.257-.417.236V19.41l.038-.14.153-.26.105-.104 7.7-4.312c1.427-.802 2.793-1.258 4.032-1.397 1.123-.127 2.143.01 3.014.384v-.036l.422.24.126.075 72.314 41.505.25.143-.15.243-15.87 31.127-.147.24-.24-.148-53.8-20.987z" fill="#B3B4B4"/><path d="M34.175 113.015v49.133c0 3.337 1.135 5.72 2.92 6.754v.002l.01.003.003.003 81.186 46.51c1.497.913 3.492.88 5.623-.354l29.71-17.22c4.615-2.675 8.46-9.822 8.46-15.956v-49.155l-81.132-46.57-46.78 26.85" fill="#FFF"/><path d="M24.072 131.04v47.846c0 1.328.21 2.436.58 3.295.308.72.72 1.235 1.197 1.518.05.03.104.06.153.095l72.453 41.5c.123.054.24.118.347.192.354.187.77.275 1.232.246.594-.037 1.27-.258 2-.68l50.467-29.134c1.947-1.127 3.768-3.275 5.12-5.826 1.363-2.574 2.215-5.51 2.215-8.2v-47.874L89.36 93.56l-65.288 37.48zm-4.494 47.846v-49.132h.004c0-.768.402-1.516 1.12-1.93L88.22 89.07c.673-.396 1.537-.43 2.263-.01l72.584 41.663c.75.362 1.266 1.127 1.266 2.01v49.157c0 3.416-1.055 7.09-2.742 10.278-1.724 3.253-4.15 6.048-6.84 7.607l-50.466 29.133c-1.353.783-2.694 1.196-3.968 1.275-1.448.09-2.788-.244-3.943-.948v-.003l-72.556-41.557c-.13-.06-.253-.13-.37-.21-1.25-.778-2.25-1.975-2.922-3.52-.608-1.406-.947-3.113-.947-5.06z" fill="#B3B4B4"/><path d="M22.12 129.803v49.13c0 3.344 1.134 5.72 2.92 6.755l.01.006h.002l68.843 39.54c2.19 1.258 3.65 1.89 6.047 2.145l26.295-21.462c4.648-2.642 8.46-9.823 8.46-15.957v-41.165l-39.746 21.91-72.83-40.902" fill="#F6F6F6"/><path d="M22.214 129.964v48.86c0 1.603.264 2.972.738 4.07.483 1.116 1.185 1.947 2.042 2.445l.007.004.004.002.01.004h.004l.002.004 72.955 41.9.687-3.33.11-.064 27.326-18.186c2.277-1.293 4.353-3.708 5.863-6.557 1.514-2.854 2.454-6.137 2.454-9.157v-40.684L95.09 171.28l-.14.078-.138-.08-72.598-41.314zm-.452 49.305l.022.273-.13-.72c0 1.68.28 3.125.783 4.288l-.197-1.073.205.816.387.73-.394-.47c.444 1.035 1.067 1.865 1.824 2.42.143.104.292.2.444.284l-.37-.442.05.013.32.43h.004l.014.01.66.38 72.645 41.72.336.195.08-.378.715-3.463 27.215-18.122c2.374-1.348 4.526-3.847 6.084-6.783 1.552-2.93 2.517-6.304 2.517-9.416v-41.648l-.42.242-39.605 22.164-72.88-41.476-.42-.242v49.824l.11.445z" fill="#B3B4B4"/><path d="M95.112 171.002v49.04c0 6.117 3.82 8.983 8.46 6.35l50.055-28.548c4.638-2.635 8.46-9.824 8.46-15.957v-49.154L95.264 171.09l-.153-.088" fill="#FFF"/><path d="M95.318 171.38v48.705c0 1.937.39 3.536 1.07 4.717.434.757.985 1.342 1.627 1.736.638.393 1.372.597 2.172.597.973 0 2.044-.302 3.17-.942l50.132-28.59c2.27-1.292 4.35-3.71 5.86-6.562 1.512-2.85 2.454-6.135 2.454-9.154v-48.668L95.33 171.373l-.012.006zm-.562 48.705V170.56l.42.242.012.006 66.755-38.316.422-.242v49.636c0 3.11-.967 6.484-2.52 9.413-1.56 2.94-3.713 5.438-6.08 6.785l-50.133 28.59c-1.213.692-2.38 1.018-3.446 1.018-.903 0-1.735-.235-2.464-.683-.726-.444-1.343-1.096-1.823-1.932-.727-1.265-1.144-2.956-1.144-4.993z" fill="#B3B4B4"/><path fill="#FFFFFE" d="M50.538 117.76l.006-4.29-28.186 16.1 72.732 41.71 66.863-38.304-22.543-12.936-2.09 2.852 16.02 9.84-58.306 33.472L40.64 135.46l-10.83-5.472L50.54 117.76"/><path fill="#E3E4E2" d="M149.095 125.597l-9.685-5.557-2.09 2.852 7.965 4.892 3.81-2.187"/><path d="M89.42 90.703l72.805 41.79c.135.076.18.247.102.38-.026.044-.062.08-.103.1L95.287 171.39c-.1.055-.214.048-.297-.01l-73.035-41.724c-.133-.077-.18-.246-.102-.38.025-.043.06-.077.102-.1l67.184-38.47c.088-.054.195-.052.28 0zm72.103 42.03L89.28 91.262l-66.626 38.15 72.492 41.413 66.377-38.094z" fill="#B3B4B4"/><path d="M179.445 113.297l.16-52.624c.024-5.356-4.34-7.278-9.67-4.293l-7.697 4.313-.152.26v71.78l7.598-4.258c5.343-2.993 9.734-9.82 9.76-15.178" fill="#FFF"/><path d="M179.165 113.297l.16-52.626c.007-1.312-.258-2.408-.745-3.26-.394-.698-.935-1.236-1.594-1.597-.662-.367-1.448-.556-2.32-.56-1.354-.008-2.922.436-4.595 1.37l-7.9 4.424-.076.132v71.226l7.454-4.172c2.63-1.474 5.03-3.898 6.775-6.61 1.742-2.71 2.83-5.705 2.842-8.327zm.72-52.623l-.16 52.624c-.013 2.732-1.134 5.83-2.93 8.624-1.792 2.787-4.262 5.277-6.973 6.798l-7.87 4.406-.415.234V61.102l.036-.14.152-.26.106-.102 7.97-4.46c1.756-.986 3.417-1.448 4.867-1.442.97.004 1.845.218 2.59.63.75.412 1.365 1.02 1.813 1.81.528.933.82 2.12.815 3.536z" fill="#B3B4B4"/><path fill="#FFFFFE" d="M89.75 91.212V24.856l72.336 41.52v66.357L89.75 91.213"/><path d="M158.074 130.813l-4.875-2.79 4.874 2.79zm0 0v-67.89l-65.51-37.73.282 72.428 46.175 21.553 12.833 8.082 6.22 3.558z" fill="#EBECEB"/><path d="M158.458 130.65l-.56-.32V62.92L92.83 25.438v67.56l-.56-.322v-67.72c0-.156.125-.28.28-.28.058 0 .11.017.158.047l65.61 37.796c.088.052.14.144.14.242v67.89" fill="#B3B4B4"/><path d="M89.32 91.127v-71.78c0-.155.124-.28.28-.28.057 0 .11.018.157.048l72.198 41.598c.088.05.14.143.14.24v71.78c0 .154-.126.28-.28.28-.06 0-.114-.017-.157-.05l-72.2-41.595c-.09-.05-.138-.147-.138-.24zm.56-71.297v71.138l71.654 41.282V61.115L89.88 19.83z" fill="#B3B4B4"/><path d="M61.57 170.517l-9.3-5.372-3.058 2.154 2.136 4.618 3.27 9.982 2.64 3.258c3.772-2.237 4.227-2.738 4.31-5.96v-8.68" fill="#EBECEB"/><path d="M61.148 170.76l-8.858-5.12-2.552 1.8 1.974 4.266 3.243 9.94 2.4 2.967c1.643-.98 2.583-1.608 3.102-2.314.53-.72.65-1.586.69-3.103v-8.438zm-8.668-5.978l9.275 5.36c.14.067.236.21.236.374v8.69c-.046 1.702-.193 2.693-.854 3.588-.636.865-1.72 1.57-3.644 2.714-.18.118-.425.083-.56-.088l-2.64-3.258-.015-.02-3.27-9.982c-.015-.022-.03-.046-.04-.07l-2.13-4.6c-.094-.182-.042-.412.13-.532l3.058-2.155c.13-.09.306-.105.455-.02z" fill="#B3B4B4"/><path d="M58.513 172.405l-9.3-5.106v9.803c0 7.815 9.3 11.434 9.3 5.304v-10.002" fill="#F6F6F6"/><path d="M58.09 172.65l-8.458-4.64v9.093c0 3.494 1.94 6.104 4.005 7.29.598.343 1.21.566 1.778.65.54.078 1.043.03 1.457-.155.73-.332 1.218-1.13 1.218-2.482v-9.755zm-8.677-5.717l9.278 5.092c.144.066.243.213.243.38v10c0 1.73-.687 2.78-1.717 3.245-.563.255-1.224.323-1.92.22-.675-.1-1.385-.357-2.08-.757-2.28-1.31-4.425-4.18-4.425-8.013v-9.803h.003c0-.068.017-.137.05-.2.11-.2.368-.275.57-.164z" fill="#B3B4B4"/><path fill="#CBCCCB" d="M89.21 90.922l72.857 41.82-66.96 38.26-72.705-41.73L89.21 90.92"/><path fill="#FFFFFE" d="M50.52 117.77l.005-4.293-28.188 16.103 72.734 41.708 66.865-38.304-15.956-9.295 1.296 5.033 6.704 4.11-58.965 33.38-54.393-30.745-10.83-5.47L50.52 117.77"/><path d="M89.4 90.71l72.806 41.79c.135.078.18.25.102.38-.026.045-.062.08-.103.103l-66.93 38.41c-.1.055-.213.047-.298-.01l-73.04-41.72c-.134-.077-.18-.247-.103-.38.025-.042.06-.077.102-.1L89.12 90.71c.09-.05.195-.05.28 0zm72.103 42.03L89.26 91.274l-66.625 38.15 72.5 41.408 66.368-38.09z" fill="#B3B4B4"/><path d="M144.157 126.837l9.866 5.664c.135.078.18.25.103.38-.027.045-.062.08-.104.103l-58.867 33.793c-.098.055-.212.046-.296-.012l-65.067-36.766c-.134-.076-.18-.246-.102-.38.025-.043.06-.078.103-.1l9.457-5.362v.638l-8.76 4.963 64.525 36.456 58.305-33.472-9.163-5.26v-.643" fill="#B3B4B4"/><path d="M74.157 3.435l27.45 15.586c4.253 2.417 7.734 8.982 7.734 14.592v90.394l-47.704 18.346V12.012c0-3.076 1.046-5.25 2.694-6.188l4.69-2.716c1.37-.83 3.17-.79 5.137.327" fill="#FEFEFE"/><path d="M75.345 1.63l27.33 15.52c2.495 1.418 4.728 3.98 6.31 6.966 1.56 2.94 2.527 6.343 2.527 9.496v89.147l-4.343 2.49V33.614c0-2.456-.772-5.14-2.02-7.49-1.22-2.304-2.858-4.233-4.613-5.23L73.197 5.368l-.116-.06c-.67-.383-1.275-.58-1.8-.614-.432-.028-.814.06-1.13.25l-.042.025-4.59 2.657c-.037.022-.072.045-.11.066-.436.25-.808.702-1.085 1.335-.332.76-.516 1.762-.516 2.984v129.094l-4.34 2.492V12.012c0-1.794.317-3.375.886-4.685.663-1.52 1.657-2.668 2.9-3.375l.08-.044 4.6-2.663.018-.008c1.065-.632 2.284-.926 3.6-.843 1.18.076 2.423.455 3.682 1.17.04.023.078.044.113.067" fill="#B2B3B3"/><path d="M74.158 3.435l27.448 15.586c4.254 2.417 7.735 8.982 7.735 14.592v90.394l-42.918 24.637V16.083L64.307 5.835l4.716-2.728c1.367-.83 3.167-.788 5.135.328" fill="#F6F6F6"/><path d="M74.292 3.2l27.446 15.588c2.173 1.234 4.143 3.52 5.57 6.206 1.42 2.68 2.302 5.77 2.302 8.618v90.24l-.54.308V33.613c0-2.76-.86-5.76-2.24-8.367-1.38-2.603-3.277-4.81-5.358-5.99L74.025 3.667c-.928-.527-1.813-.806-2.626-.856-.83-.054-1.587.132-2.238.525l-.25.152-.002-.005-4.297 2.487 2.074 10.06.008.05V148.49l-.548.314V16.106L64.04 5.89 64 5.7l.17-.097 4.715-2.73.026-.016.092-.052.13-.077v.004c.686-.353 1.46-.512 2.296-.46.9.06 1.86.36 2.864.927" fill="#B2B3B3"/><path d="M69.372 6.206l27.446 15.587c4.255 2.416 7.737 8.98 7.737 14.592v90.367l-42.92 15.6V12.012c.002-5.61 3.48-8.223 7.737-5.806" fill="#FFF"/><path d="M69.435 5.972l27.21 15.588c2.156 1.234 4.108 3.52 5.52 6.205 1.41 2.682 2.287 5.77 2.287 8.62v90.426l-.54.312V36.384c0-2.762-.85-5.76-2.22-8.368-1.368-2.6-3.247-4.808-5.312-5.988L69.17 6.438c-1.025-.585-2-.864-2.88-.864-.72 0-1.38.185-1.953.54-.578.36-1.077.89-1.466 1.576-.614 1.08-.966 2.542-.966 4.32V142.2l-.538.31V12.01c0-1.872.38-3.427 1.04-4.586.436-.765.996-1.36 1.65-1.766.66-.407 1.414-.623 2.235-.623.97 0 2.035.3 3.145.935" fill="#B2B3B3"/><path d="M69.188 12.387c1.6.91 2.898 3.172 2.898 5.052 0 1.88-1.296 2.668-2.898 1.76-1.603-.91-2.9-3.172-2.9-5.055 0-1.882 1.297-2.668 2.9-1.758" fill="#ED4C6F"/><path d="M77.034 17.024c1.603.91 2.9 3.172 2.9 5.054 0 1.88-1.298 2.67-2.9 1.76-1.6-.91-2.9-3.17-2.9-5.053s1.3-2.67 2.9-1.76" fill="#F0AB2D"/><path fill="#B2B3B3" d="M61.506 20.82l42.914 24.37.268-.465-42.915-24.372-.267.466"/><path fill="#B2B3B3" d="M82.506 133.617h.543V32.777h-.544M72.648 41.99l-4.295-.042 4.3-9.13 4.203 13.464-4.208-4.293M90.08 44.01l8.324 4.728.206.117v10.712l-.607-.347-8.324-4.728-.208-.115V43.665l.607.346zm7.716 5.312l-7.51-4.266v8.852l7.51 4.266v-8.852z"/><path fill="#B2B3B3" d="M88.348 41.696l3.06 1.737v3.594l-3.06-1.737v-3.594M96.674 46.423l3.06 1.74v3.59l-3.06-1.736v-3.594M96.674 56.205l3.06 1.737v3.594l-3.06-1.738v-3.593M88.348 51.478l3.06 1.736v3.594l-3.06-1.737V51.48M92.952 49.72l2.175 1.234v2.558l-2.175-1.236V49.72M98.557 126.87l-.076.05-.487-.28-.085-.13c-.026-.793-.052-1.264-.084-1.413-.06-.278-.228-.515-.498-.71-.102-.078-.59-.365-1.457-.857l-1.038-.59c-.09 1.764-.018 4.223-.018 6.02 0 1.446.036 2.402.1 2.88.02.135.068.257.15.362l-1.266.726-.1-.057c-1.104-.625-1.9-1.056-2.384-1.295l-.07-.125v-1.18l.08-.045c.524.26.828.403.904.42.153.04.24-.022.265-.184.067-.4.1-1.32.1-2.765 0-1.64.11-4.352-.023-6.042l-1.108-.63c-.923-.524-1.463-.795-1.618-.818-.08-.01-.143 0-.17.038-.048.07-.084.246-.114.52-.037.3-.062.615-.072.948l-.077.052-.488-.28-.086-.14-.016-1.566c-.004-.5-.028-1.417-.092-1.97l.07-.05c.304.234 1.415.895 3.33 1.984l3.14 1.78c1.768 1.004 2.876 1.604 3.333 1.8l.078.137c-.15.954-.11 2.343-.12 3.412M68.896 57.86v-2.053l1.998 1.134v2.054l3.413 1.94c.674.38 1.294 1.022 1.773 1.77l2.976-1.804.37.643-2.983 1.81c.38.767.607 1.597.607 2.358v4.15l1.828 1.038V73.2l-1.828-1.04v2.055l-2-1.135v-2.053l-3.41-1.938c-1.512-.857-2.744-3.006-2.744-4.778v-4.148l-1.83-1.037v-2.304l1.83 1.037zm2.145 7.905l3.53-2.14c-.16-.24-.344-.438-.518-.537l-3.158-1.793v3.847c0 .175.056.395.147.623zm3.874-1.485l-3.523 2.138c.16.228.337.418.505.513l3.154 1.792v-3.845c0-.168-.05-.378-.136-.597zM92.02 74.304l.12.07V69.69c0-1.106.77-1.573 1.712-1.04.943.536 1.715 1.88 1.715 2.986v4.683l.12.067c.388.22.705.772.705 1.228 0 .454-.317.645-.704.425l-3.67-2.084c-.385-.218-.704-.772-.704-1.226 0-.452.32-.646.705-.426"/><path d="M91.94 74.725l-.124-.07c-.032-.018-.06-.03-.08-.034-.008.026-.014.065-.014.112 0 .157.06.337.153.5v.004c.094.162.217.297.346.373l3.67 2.083h.003c.03.018.058.028.08.033.008-.023.013-.06.013-.11 0-.156-.058-.338-.153-.502-.093-.16-.216-.3-.346-.376l-.12-.066-.207-.117V71.64c0-.483-.17-1.027-.448-1.51-.277-.48-.652-.895-1.057-1.126h-.002c-.2-.112-.383-.167-.54-.167-.097 0-.183.02-.25.063-.072.038-.135.105-.183.19-.083.147-.13.35-.13.603v5.38l-.61-.348zm-.207-.915v-4.118c0-.398.087-.738.24-1.003.12-.21.284-.377.477-.487.2-.116.422-.176.662-.176.292 0 .613.088.942.274v.003c.534.304 1.017.83 1.36 1.428.345.6.56 1.285.56 1.908v4.453c.222.146.42.372.565.625.16.28.26.603.26.9 0 .203-.05.384-.13.527-.07.123-.166.22-.284.29-.116.07-.25.105-.392.105-.16 0-.334-.046-.507-.145l-3.668-2.084c-.26-.147-.488-.394-.65-.677v.002c-.162-.28-.26-.605-.26-.902 0-.206.045-.384.13-.528.068-.123.167-.22.28-.288v-.002c.118-.067.252-.104.394-.104h.02v.002z" fill="#B2B3B3"/><path d="M94.576 83.238h.02c.155 0 .285-.06.376-.17.113-.138.183-.356.19-.64v-4.39l-2.612-1.482v3.88c0 .34.087.717.24 1.076v.002c.157.383.384.746.653 1.043l.106.27v.843c0 .16.058.344.154.514.095.165.223.307.355.383v.002c.036.017.066.03.09.034.01-.025.018-.067.018-.12v-1.25l.408.004zm1.02.343c-.167.204-.378.342-.62.412v.49c0 .207-.048.388-.13.535v.002c-.07.12-.168.22-.287.29-.118.068-.253.106-.396.106-.16 0-.336-.05-.51-.147l-.003-.002c-.258-.148-.492-.4-.654-.686-.163-.285-.264-.613-.264-.912v-.696c-.283-.34-.522-.74-.696-1.152-.19-.457-.302-.937-.302-1.388v-5.27l.608.345 3.426 1.945.206.117v4.806l-.002.005v.06c-.01.475-.15.863-.375 1.138zm-1.456 1.036v.003-.004zM94.148 92.89l3.655 10.83c-.95.133-1.757.453-2.408.98l-3.085-1.753c-.677-1.4-1.495-2.653-2.463-3.744l3.655-6.68v6.066c-.487-.112-.845.214-.845.838 0 .76.522 1.67 1.167 2.034.646.366 1.168.05 1.168-.707 0-.628-.357-1.357-.846-1.8v-6.064h.002zm-1.936 10.882v1.913l3.225 1.832v-1.914l-3.225-1.83zM71.875 108.423c-.2-.1-.282-.343-.18-.542.1-.2.345-.28.547-.18l.018.01.037.02.037.02.042.02.037.022.04.02.038.024.04.02.03.017.007.007.04.02.038.02.038.025.038.022.04.023.038.023.036.022.04.024.04.02.037.027.037.02.04.026.037.024.037.025.04.024.037.025.04.026.037.025.036.028.038.025.036.027.037.024.04.027.037.028.038.027.037.03.033.025.037.03.037.026.036.028.036.03.036.028.036.03.037.03.035.026.037.03.034.03.006.004c.172.145.192.402.045.57-.145.17-.4.19-.573.046l-.005-.004-.032-.028-.033-.026-.036-.03-.032-.024-.032-.025-.034-.026-.033-.027-.035-.024-.033-.026-.032-.026-.035-.026-.034-.024-.03-.024-.034-.023-.032-.023-.034-.024-.035-.025-.034-.022-.034-.024-.032-.024-.034-.02-.035-.024-.032-.022-.037-.023-.032-.02-.035-.023-.036-.022-.033-.022-.034-.022-.033-.02-.034-.023-.038-.022-.033-.02-.036-.02-.036-.022-.034-.02-.034-.02-.036-.022-.034-.018-.033-.018-.036-.02-.034-.02-.032-.018-.035-.018-.036-.02-.02.005zm-2.187-1.336c.224-.015.418.157.43.38.014.223-.16.415-.382.43h-.03l-.026.003h-.024l-.03.003-.024.003-.024.002-.024.003-.028.005-.025.002-.022.004-.026.006-.024.004-.027.006-.024.004-.022.004-.025.006-.026.005-.022.006-.024.007-.024.005-.025.008-.024.006-.024.008-.022.006-.023.01-.024.005-.02.008-.024.008-.027.01-.02.008-.024.01-.022.007-.023.01-.023.01-.02.008-.024.01-.023.01-.022.01-.022.01-.022.013-.02.01-.025.01-.02.012-.022.012-.02.01-.02.013-.023.014-.022.01-.018.013-.023.015-.022.012-.02.014-.02.014-.022.014-.02.013-.017.015-.008.005c-.183.13-.437.088-.567-.095-.13-.18-.088-.433.096-.564l.01-.006.027-.02.027-.018.028-.02.026-.018.03-.017.026-.017.026-.017.03-.02.028-.016.024-.015.028-.017.03-.017.027-.012.03-.017.026-.012.03-.016.028-.012.03-.016.03-.014.03-.014.03-.013.028-.015.03-.012.03-.01.03-.013.03-.012.035-.01.026-.012.03-.01.035-.01.03-.01.03-.01.032-.01.032-.01.03-.006.03-.01.033-.008.033-.008.033-.007.033-.01.03-.004.034-.007.032-.007.03-.007.035-.005.033-.005.033-.005.035-.004.03-.005.036-.003.033-.005h.037l.032-.003.034-.006.034-.002.038.005zm-3.196 2.8c.058-.213.282-.342.498-.283.218.058.346.282.287.495l-.003.015-.01.032-.007.03-.01.033-.007.03-.008.034-.007.034-.007.032-.008.034-.007.03-.007.035-.007.032-.008.035-.006.034-.006.036-.008.033-.004.035-.006.035-.006.037-.005.035-.004.033-.004.037-.005.037-.004.038-.005.035v.042l-.004.038-.004.038-.002.04-.004.036v.04l-.005.037-.004.04v.037l-.003.04-.002.038v.078l-.002.042-.003.077v.038c0 .225-.187.403-.412.402-.223 0-.404-.186-.402-.408l.002-.088v-.046l.004-.044v-.044l.002-.044v-.045l.004-.043.002-.044.004-.044.002-.043.005-.042.002-.044.004-.042.005-.04.003-.044.006-.04.003-.044.007-.04.003-.042.005-.04.008-.044.005-.04.008-.04.006-.04.004-.04.01-.04.004-.04.01-.04.005-.04.008-.036.01-.04.008-.04.01-.038.008-.04.01-.036.008-.04.01-.036.01-.037.01-.037.01-.038v-.014h-.002zm.084 4.208c-.053-.217.08-.437.298-.49.217-.055.438.078.493.294l.01.046.012.042.01.043.012.044.013.045.012.043.012.045.01.043.014.044.013.045.014.043.013.042.014.044.013.043.015.045.014.042.014.044.014.045.015.04.015.044.014.044.015.045.015.043.017.043.014.043.016.045.018.044.014.043.016.044.018.043.018.042.016.044.016.042.018.045.003.008c.082.205-.02.44-.23.524-.207.08-.445-.023-.527-.23l-.005-.012-.018-.045-.018-.05-.02-.044-.017-.046-.017-.048-.017-.046-.02-.048-.02-.047-.015-.045-.017-.046-.016-.047-.018-.047-.016-.046-.017-.046-.014-.048-.014-.047-.015-.046-.016-.046-.014-.048-.014-.048-.015-.045-.016-.047-.012-.048-.014-.05-.013-.044-.014-.044-.015-.048-.01-.048-.013-.048-.013-.046-.014-.046-.01-.048-.014-.047-.01-.04zm1.627 3.828c-.118-.192-.058-.44.135-.557.192-.115.442-.057.56.134l.014.023.026.04.024.04.024.04.024.04.025.04.024.038.024.04.025.04.026.038.024.04.025.036.027.04.026.04.025.037.024.04.028.04.028.037.05.074.028.038.026.038.028.038.028.037.025.04.028.035.027.037.03.037.025.035.056.074.027.034.028.035.03.038.002.005c.14.172.11.428-.066.566-.175.14-.432.11-.57-.066l-.006-.01-.03-.037-.03-.037-.03-.04-.03-.038-.03-.04-.028-.037-.03-.04-.03-.04-.028-.04-.03-.04-.018-.034-.03-.04-.028-.038-.028-.04-.025-.04-.03-.04-.028-.04-.027-.04-.033-.04-.026-.044-.03-.04-.025-.042-.028-.042-.027-.042-.03-.04-.027-.043-.025-.042-.026-.043-.027-.042-.025-.04-.028-.045-.025-.04-.027-.042-.017-.023zm2.712 3.17c-.173-.142-.197-.398-.056-.57.14-.173.4-.197.572-.055l.008.007.033.027.034.026.033.025.033.026.034.023.033.025.035.026.033.026.033.023.034.025.033.022.034.024.036.025.033.024.033.022.034.023.034.022.034.023.037.022.033.023.033.022.037.022.034.022.034.022.036.02.033.022.035.022.035.024.033.018.035.022.036.02.034.02.034.023.038.017.034.02.034.02.033.02.007.002c.198.104.27.348.165.546-.106.197-.352.27-.55.165l-.008-.003-.04-.02-.038-.023-.037-.02-.04-.024-.038-.02-.04-.025-.038-.02-.037-.022-.04-.026-.038-.02-.038-.024-.04-.023-.037-.024-.04-.023-.035-.024-.038-.023-.04-.025-.036-.026-.038-.023-.038-.025-.04-.026-.037-.023-.036-.03-.038-.025-.038-.026-.037-.026-.037-.03-.038-.024-.037-.03-.038-.026-.035-.025-.036-.03-.037-.03-.037-.025-.034-.028-.038-.03-.037-.03-.005-.014zm3.93 1.656c-.222 0-.407-.18-.407-.402 0-.223.18-.408.404-.408h.104l.024-.003.026-.002h.026l.026-.002.025-.003.028-.002.026-.003.026-.002.024-.003.027-.003.024-.003.024-.004.027-.005.024-.002.027-.007.025-.003.022-.007.025-.006.024-.004.022-.006.024-.005.024-.005.025-.007.022-.007.024-.01.023-.005.024-.006.024-.008.02-.007.025-.01.024-.007.02-.008.023-.01.024-.01.023-.008.02-.01.024-.007.023-.01.022-.012.023-.01.022-.01.022-.01.022-.01.022-.014.022-.01.023-.01.022-.014.02-.01.022-.015.02-.012.02-.012.023-.01v-.004c.192-.116.443-.06.563.13.12.19.06.44-.13.56l-.01.003-.025.017-.03.017-.028.018-.026.014-.028.02-.027.014-.03.016-.03.016-.026.014-.032.015-.026.015-.03.015-.03.014-.027.012-.03.014-.033.014-.028.01-.03.014-.03.012-.03.012-.034.01-.03.01-.027.01-.034.014-.03.01-.033.007-.03.01-.032.01-.032.008-.03.007-.032.01-.032.01-.033.005-.033.008-.03.006-.033.008-.035.006-.03.005-.034.007-.032.005-.034.004-.033.006-.03.005-.035.005-.034.004-.033.003h-.033l-.034.003h-.027l-.034.002h-.035l-.035.002h-.034l-.034.003h-.066v-.004zm3.34-2.625c-.066.212-.293.333-.508.266-.214-.067-.336-.29-.267-.506l.005-.014.008-.03.01-.03.01-.03.008-.032.01-.03.01-.03.008-.033.016-.065.008-.032.007-.032.007-.034.01-.034.005-.03.006-.035.008-.033.006-.035.007-.034.005-.032.007-.037.005-.033.007-.035.005-.036.004-.037.004-.032.006-.04.002-.035.006-.037.003-.036.004-.037.003-.036.002-.04.005-.04.004-.034.002-.037.002-.04.004-.075.002-.04.002-.04v-.036l.002-.034c.01-.223.196-.4.422-.392.225.008.4.194.393.417l-.003.04v.043l-.002.045-.003.043-.002.044-.003.044v.043l-.005.045-.005.042-.004.042-.002.04-.004.044-.004.043-.005.04-.005.044-.005.04-.004.04-.006.042-.007.04-.006.04-.006.04-.007.04-.008.04-.006.04-.008.04-.007.04-.007.038-.01.04-.008.04-.01.036-.008.038-.007.038-.012.04-.01.037-.007.037-.01.038-.01.036-.012.036-.01.038-.013.036-.01.036-.01.037-.004.005zm.01-4.212c.052.216-.085.433-.303.483-.22.052-.437-.084-.49-.3l-.005-.034-.01-.045-.013-.042-.01-.043-.01-.045-.013-.044-.01-.043-.01-.044-.013-.045-.014-.043-.01-.044-.014-.044-.013-.042-.013-.046-.014-.042-.012-.045-.016-.043-.012-.043-.014-.046-.015-.043-.013-.04-.014-.048-.015-.04-.015-.045-.016-.047-.015-.044-.015-.042-.015-.043-.016-.04-.017-.047-.017-.042-.014-.043-.02-.043-.016-.044-.01-.024c-.078-.21.028-.443.24-.52.21-.08.444.027.523.236l.01.027.018.045.02.047.017.047.016.046.017.045.017.047.017.047.015.048.017.046.016.046.015.048.017.045.015.048.016.047.015.047.014.046.015.047.014.046.013.046.014.048.013.048.014.044.015.05.01.045.015.05.012.045.013.045.012.05.01.046.015.046.01.05.013.044.01.05.005.027zm-1.573-3.85c.114.192.05.44-.142.556-.192.112-.443.05-.558-.143l-.004-.006-.024-.04-.024-.04-.025-.042-.022-.038-.025-.04-.024-.04-.024-.038-.05-.082-.024-.04-.026-.036-.025-.04-.024-.038-.027-.04-.024-.038-.027-.04-.025-.04-.027-.037-.023-.036-.028-.04-.028-.038-.026-.035-.025-.037-.053-.077-.027-.037-.03-.04-.024-.035-.028-.038-.026-.036-.03-.037-.026-.035-.028-.04-.014-.015c-.137-.176-.103-.434.074-.57.178-.133.433-.102.57.076l.017.018.03.04.027.038.03.04.03.04.03.04.028.04.028.038.03.04.028.04.03.038.028.043.028.04.027.04.025.04.03.042.027.04.027.044.026.04.028.043.027.04.027.04.028.043.026.042.027.043.026.042.027.04.026.043.025.043.027.043.026.043.025.044.024.04.026.044.004.003zM104.69 45.192c-.13.074-.294.03-.37-.098-.074-.13-.03-.294.1-.37l4.786-2.746c.13-.074.294-.03.37.097.075.128.03.295-.098.367l-4.788 2.75M104.69 70.4c-.13.075-.294.03-.37-.098-.074-.128-.03-.29.1-.367l4.786-2.748c.13-.074.294-.03.37.098.075.128.03.293-.098.367l-4.788 2.75M104.69 95.61c-.13.075-.294.032-.37-.097-.074-.126-.03-.29.1-.367l4.786-2.75c.13-.073.294-.027.37.1.075.127.03.293-.098.37l-4.788 2.744M104.69 120.822c-.13.073-.295.027-.37-.098-.077-.13-.03-.294.1-.367l4.787-2.748c.13-.074.295-.03.37.098.075.128.028.293-.1.366l-4.788 2.748" fill="#B2B3B3"/><path fill="#B2B3B3" d="M61.505 46.03l42.914 24.372.268-.465-42.915-24.374-.268.468M61.506 71.242l42.913 24.372.268-.468-42.914-24.37-.268.466M61.505 96.45l42.914 24.372.268-.466-42.915-24.373-.268.468M61.507 121.664l26.097 14.82.543-.31-26.37-14.978-.27.468"/><path d="M134.188 139.06l10.95-6.285c.075-.04.15-.082.223-.128l.07-.04v-.005c.956-.64 1.534-1.81 1.543-3.432l.105-18.99c.02-3.78-3.063-8.633-6.856-10.78l-14.82-8.4c-2.922-1.656-4.386-1.044-6.67.266l-9.19 5.277 13.59 20.568 11.056 21.95" fill="#C71E4E"/><path d="M107.398 119.25l.105-18.988c.02-3.782 3.14-5.118 6.932-2.968l14.82 8.4c3.794 2.148 6.88 7 6.858 10.78l-.106 18.99c-.02 3.783-3.14 5.117-6.93 2.97l-14.824-8.4c-3.792-2.15-6.877-7-6.855-10.783" fill="#E94C6D"/><path d="M71.7 84.412c2.86 1.653 5.182 5.85 5.182 9.368 0 3.522-2.316 5.038-5.18 3.383-2.86-1.655-5.18-5.848-5.18-9.373 0-3.518 2.318-5.03 5.18-3.378" fill="#B2B3B3"/><path d="M134.188 101.41l10.95-6.286c.075-.04.15-.083.223-.128l.07-.04v-.005c.956-.64 1.534-1.81 1.543-3.43l.105-18.99c.02-3.78-3.063-8.635-6.856-10.783l-14.82-8.4c-2.922-1.653-4.386-1.043-6.67.268l-9.19 5.276 13.59 20.57 11.056 21.95" fill="#D0792A"/><path d="M107.398 81.6l.105-18.99c.02-3.782 3.14-5.116 6.932-2.968l14.82 8.4c3.794 2.15 6.88 7 6.858 10.782l-.106 18.988c-.02 3.782-3.14 5.117-6.93 2.97l-14.824-8.4c-3.792-2.15-6.877-7-6.855-10.783" fill="#F0AB2D"/><path d="M114.222 109.807l.773.42.608.334.77.423c.717.392 1.303 1.377 1.303 2.19v3.225c0 .767-.523 1.117-1.182.824v4.73c0 .557-.402.794-.89.526l-.61-.333c-.49-.267-.89-.942-.89-1.498v-4.73c-.66-.43-1.182-1.352-1.182-2.12v-3.223c0-.814.585-1.16 1.3-.767zm1.146-4.006c.766.42 1.388 1.464 1.388 2.336 0 .87-.622 1.235-1.388.817-.765-.42-1.385-1.465-1.385-2.334 0-.87.62-1.238 1.385-.82zm6.18 2.955c.805.44 1.458 1.54 1.458 2.454 0 .914-.653 1.3-1.46.86-.803-.442-1.456-1.54-1.456-2.455 0-.914.653-1.3 1.457-.86zm6.237 3.654c.787.43 1.426 1.506 1.426 2.4 0 .897-.638 1.273-1.425.842-.788-.43-1.427-1.507-1.427-2.402 0-.895.64-1.27 1.427-.84zm-1.146 4.183l.77.422.61.333.77.423c.715.393 1.3 1.377 1.3 2.19v3.225c0 .767-.52 1.118-1.18.826v4.73c0 .556-.402.793-.89.526l-.61-.333c-.488-.27-.89-.94-.89-1.5v-4.73c-.66-.43-1.18-1.35-1.18-2.118v-3.224c0-.813.584-1.158 1.3-.767zm-6.237-3.44l1.38.755.77.423c.715.392 1.3 1.377 1.3 2.19v3.225c0 .765-.52 1.117-1.182.824v4.73c0 .557-.4.793-.888.526l-.61-.334c-.487-.266-.89-.942-.89-1.498v-4.73c-.66-.43-1.18-1.352-1.18-2.12v-3.223c0-.813.585-1.157 1.3-.766z" fill="#FFFFFE"/><path d="M116.11 118.95l-68.017-39.3c-.427-.245-.803-.374-1.12-.4-.206-.018-.38.016-.512.092l-.048.025-3.832 2.348c-.084.064-.175.123-.27.177-.102.058-.208.105-.315.146-.22.084-.432.314-.61.668-.27.537-.422 1.285-.422 2.227v50.74l-4.508-2.547V84.933c0-1.65.325-3.076.898-4.22.638-1.264 1.58-2.188 2.744-2.71l3.96-2.425c.047-.033.1-.066.153-.096.93-.536 1.985-.775 3.116-.686.973.078 1.992.405 3.02.997l68.017 39.298c2.014 1.163 3.806 3.237 5.063 5.64 1.236 2.35 2.002 5.076 2.002 7.606v20.418l-4.506 2.586v-23.002c0-1.806-.57-3.798-1.487-5.548-.893-1.7-2.074-3.12-3.324-3.84" fill="#B3B4B4"/><path d="M117.05 117.02l-67.86-39.3c-1.48-.853-2.835-.91-3.875-.307l-4.123 2.53 1.703 3.11v53.712l52.12 29.448 27.96-16.05v-21.826c0-4.338-2.668-9.43-5.926-11.317" fill="#F6F6F6"/><path d="M117.44 117.26L49.107 77.963c-.69-.398-1.353-.614-1.96-.662-.614-.047-1.176.075-1.658.352l-3.916 2.388 1.586 2.878.037.134v53.88l-.567-.318V83.12l-1.806-3.274.227-.14 4.15-2.53.006-.006c.584-.332 1.255-.48 1.985-.425.69.056 1.43.295 2.2.734l68.334 39.298c1.688.97 3.217 2.758 4.322 4.85 1.1 2.09 1.784 4.494 1.784 6.708v21.334l-.565.326v-21.66c0-2.123-.658-4.435-1.72-6.45-1.058-2.006-2.512-3.712-4.104-4.626" fill="#B3B4B4"/><path d="M112.488 119.772l-67.86-39.296c-3.258-1.887-5.924.12-5.924 4.457v46.752l56.31 31.817 23.4-13.432v-18.98c0-4.34-2.667-9.432-5.926-11.318" fill="#FFF"/><path d="M38.704 98.233v33.452l27.79 15.702V118.73c0-2.5-1.542-5.43-3.43-6.514l-24.36-13.983" fill="#F6F6F6"/><path d="M55.306 121.917l18.4 10.674v2.446l-18.4-10.676v-2.443zm0-5.93l18.4 10.675v2.443l-18.4-10.675v-2.443zm0 12.365l18.046 10.42v2.443l-18.046-10.42v-2.443z" fill="#EBECEB"/><path d="M55.306 121.917l11.19 6.49v2.446l-11.19-6.493v-2.443zm11.19 15.338v-2.443l-11.19-6.46v2.443l11.19 6.46zm0-12.333v-2.443l-11.19-6.493v2.443l11.19 6.492z" fill="#E5E6E6"/><path d="M112.608 120.013L44.51 80.716c-.79-.456-1.54-.67-2.213-.67-.534 0-1.023.135-1.447.39-.432.262-.803.65-1.098 1.153-.486.824-.765 1.957-.765 3.343v49.623l-.564-.32V84.934c0-1.486.308-2.716.843-3.625.342-.582.78-1.038 1.29-1.347.516-.31 1.102-.476 1.74-.476.77 0 1.615.24 2.496.75l68.098 39.297c1.682.973 3.207 2.758 4.306 4.852 1.098 2.088 1.78 4.492 1.78 6.707v21.367l-.563.324v-21.69c0-2.123-.658-4.435-1.716-6.45-1.054-2.007-2.502-3.71-4.09-4.627" fill="#B3B4B4"/><path d="M84.36 115.928c.196.113.26.363.145.554-.114.193-.364.257-.56.143l-2.102-1.234c-.193-.113-.258-.36-.143-.554.113-.192.364-.256.556-.143l2.104 1.235M107.37 130.887c.192.114.256.362.143.555-.114.192-.364.257-.56.144l-4.827-2.8c-.193-.113-.257-.36-.144-.555.113-.19.363-.253.558-.14l4.83 2.797zM87.82 119.45c.192.114.256.362.14.554-.11.193-.362.257-.556.144l-2.102-1.234c-.193-.113-.258-.362-.143-.554.11-.19.363-.256.556-.143l2.103 1.234zm5.607 3.29c.193.113.257.363.143.555-.114.19-.363.257-.558.142l-2.103-1.234c-.195-.113-.257-.362-.143-.554.114-.194.364-.258.557-.145l2.103 1.236zm5.608 3.292c.193.114.256.36.142.555-.113.193-.363.256-.558.143l-2.103-1.234c-.194-.113-.257-.362-.144-.554.112-.192.365-.256.556-.142l2.105 1.232z" fill="#B2B3B3"/><path d="M105.252 127.066l4.28 2.52c.126.073.2.207.2.345v5.225c0 .222-.182.404-.407.404-.083 0-.16-.026-.226-.068l-4.28-2.52c-.126-.074-.2-.21-.2-.347v-5.222c0-.224.183-.406.408-.406.082 0 .16.027.224.07M107.583 141.28c0 .225-.18.405-.405.405-.226 0-.406-.18-.406-.405v-2.426c0-.224.18-.406.406-.406.225 0 .405.182.405.406v2.426M107.583 147.755c0 .223-.18.404-.405.404-.226 0-.406-.182-.406-.405v-2.427c0-.224.18-.406.406-.406.225 0 .407.182.407.406l-.002 2.427M107.583 154.23c0 .224-.18.403-.405.403-.226 0-.406-.18-.406-.404v-2.43c0-.223.18-.402.406-.402.225 0 .405.18.405.403v2.43M75.294 108.225l4.28 2.518c.125.074.198.21.2.347v5.224c0 .222-.184.403-.408.403-.084 0-.16-.024-.225-.067l-4.28-2.518c-.125-.076-.198-.21-.198-.347h-.002v-5.224c0-.222.184-.403.408-.403.082 0 .162.025.226.068zm3.665 3.097l-3.485-2.053v4.285l3.484 2.05v-4.283z" fill="#B2B3B3"/><path d="M80.145 136.01l18.398 10.675v2.444l-18.398-10.677v-2.443zm0-5.93l18.398 10.676v2.443l-18.398-10.676v-2.443zm0 12.365l9.61 5.577v2.444l-9.61-5.578v-2.443z" fill="#CBCCCB"/><path d="M130.238 85.66v.023l-.59.498c-.072.053-.154.09-.22.15-.136.126-.317.218-.408.3-.206.183-1.103.637-1.336.738-.948.42-1.995.662-3.148.556-.627-.057-1.27-.198-1.943-.47-.196-.078-.576-.288-.735-.327l-.658-.378c-.374-.31-.727-.45-1.387-1.026-1.27-1.11-2.31-2.278-3.393-3.838-.536-.774-1.433-2.18-1.92-3.1-.315-.59-.613-1.124-.9-1.75-.035-.075-.052-.127-.094-.2-.12-.222-.076-.177-.188-.4l-.247-.554c-.02-.042-.006-.022-.03-.06v-.034c.02-.01.073-.06.098-.09.04-.043.037-.056.09-.1l.736-.713c.166-.104.312-.297.58-.47.045-.027.055-.053.097-.086.035-.03.073-.035.11-.06l.62-.388c.32-.196 1.028-.463 1.377-.534.566-.115.93-.177 1.578-.13 1.564.11 3.146.914 4.767 2.303 1.736 1.488 3.577 3.884 4.986 6.196l.685 1.15 1.475 2.794zm-7.007-8.71c.296.382.607.825.847 1.265.274.505.457.89.666 1.44.12.31.235.67.33 1.04.2.776.32 1.645.284 2.412-.054 1.198-.343 1.978-.86 2.558-.14.157-.31.285-.476.394-.273.18-.702.27-1.04.264-1.03-.024-2.098-.718-3.097-1.926-.37-.448-.962-1.372-1.21-1.974-.102-.25-.15-.312-.307-.728-.733-1.93-.83-4.034-.22-5.314.283-.596.643-.958 1.08-1.17.09-.044.175-.078.274-.11 1.056-.346 2.605.397 3.73 1.85zm-1.39 1.28c.27.207.48.438.696.733.208.286.36.575.506.903.283.63.49 1.5.398 2.252-.05.414-.235.895-.444 1.076-.053.045-.077.048-.122.097-.045.05-.072.05-.128.082-.684.38-1.666-.193-2.407-1.437-.43-.718-.74-1.858-.645-2.738.136-1.253 1.043-1.816 2.145-.967z" fill="#FFFFFE"/><path d="M133.612 188.575l-9.6-7.372 2.982-5.463 9.6 7.37 2.007 5.42-4.988.045zm-10.91-8.38l-.972-.744c-.82-.628-.82-2.375 0-3.876.82-1.503 2.16-2.217 2.982-1.587l.97.747-2.98 5.462zM134.434 170.283l4.988-5.265-2.007 7.555-3.515 6.442-2.982-2.29 3.516-6.442zm-5.077 17.053l-3.824 7.01c-.82 1.5-2.162 2.215-2.982 1.586-.82-.63-.82-2.374 0-3.877l3.826-7.008 2.98 2.29z" fill="#C8C8C8"/><path d="M129.793 161.38c2.344-1.34 4.575-1.975 6.587-1.975 1.588 0 3.043.396 4.31 1.15 1.264.753 2.338 1.864 3.17 3.297 1.235 2.13 1.938 4.97 1.938 8.407 0 5.422-1.748 11.334-4.575 16.506-2.828 5.176-6.744 9.62-11.074 12.106-2.35 1.348-4.588 1.987-6.606 1.987-1.59 0-3.045-.396-4.313-1.152-1.26-.753-2.335-1.864-3.167-3.297-1.235-2.127-1.938-4.97-1.938-8.405 0-5.423 1.75-11.334 4.575-16.505 2.827-5.178 6.743-9.622 11.072-12.108l.02-.01zm6.587-1.223c-1.887 0-3.99.603-6.21 1.873l-.02.01c-4.207 2.418-8.022 6.757-10.787 11.818-2.768 5.065-4.48 10.848-4.48 16.147 0 3.304.665 6.02 1.834 8.034.765 1.317 1.75 2.336 2.902 3.023 1.147.685 2.47 1.043 3.924 1.043 1.89 0 4-.605 6.23-1.883 4.205-2.414 8.02-6.754 10.786-11.816 2.768-5.066 4.48-10.848 4.48-16.148 0-3.306-.664-6.02-1.835-8.034-.765-1.318-1.748-2.338-2.902-3.026-1.146-.684-2.47-1.043-3.923-1.043z" fill="#C8C8C8"/><path d="M50.064 89.63c3.25 1.867 5.883 6.82 5.883 11.058 0 4.24-2.634 6.166-5.883 4.298-3.25-1.868-5.883-6.82-5.883-11.06s2.635-6.165 5.884-4.297" fill="#FFFFFE"/><path d="M50.222 89.358c1.677.964 3.19 2.716 4.28 4.766 1.088 2.045 1.76 4.394 1.76 6.564 0 1.435-.293 2.623-.808 3.508-.34.58-.772 1.035-1.28 1.342-.515.31-1.102.476-1.74.476-.78 0-1.634-.245-2.528-.758-1.675-.962-3.19-2.713-4.28-4.765-1.09-2.043-1.76-4.393-1.76-6.563 0-1.435.293-2.623.81-3.508.336-.582.77-1.036 1.28-1.343.513-.31 1.1-.476 1.74-.476.777 0 1.632.245 2.526.758zm3.724 5.057c-1.038-1.95-2.468-3.612-4.04-4.515-.79-.454-1.54-.67-2.21-.67-.524 0-1 .13-1.413.382-.42.252-.78.63-1.064 1.12-.46.792-.723 1.87-.723 3.195 0 2.07.644 4.315 1.685 6.273 1.04 1.95 2.468 3.612 4.04 4.516.792.454 1.54.67 2.21.67.523 0 1-.132 1.413-.383.42-.253.78-.63 1.064-1.12.46-.792.722-1.87.722-3.195 0-2.07-.644-4.315-1.686-6.273z" fill="#3EC9F0"/><path fill="#3EC9F0" d="M24.407 108.53L50.39 96.762l.263.568-25.985 11.766-.26-.567"/><path d="M50.064 95.026c.966.555 1.748 2.027 1.748 3.286 0 1.26-.782 1.832-1.748 1.277-.965-.556-1.75-2.028-1.75-3.288 0-1.26.785-1.832 1.75-1.276" fill="#3EC9F0"/><path d="M79.424 107.52c3.25 1.867 5.883 6.82 5.883 11.058 0 4.24-2.634 6.166-5.883 4.298-3.25-1.868-5.884-6.82-5.884-11.06s2.635-6.165 5.884-4.297" fill="#FFFFFE"/><path d="M79.58 107.25c1.678.962 3.19 2.714 4.282 4.764 1.088 2.045 1.76 4.394 1.76 6.564 0 1.435-.294 2.623-.81 3.508-.336.58-.77 1.034-1.28 1.342-.513.31-1.1.476-1.74.476-.777 0-1.632-.245-2.526-.758-1.676-.962-3.19-2.713-4.28-4.765-1.088-2.043-1.76-4.393-1.76-6.563 0-1.435.293-2.623.808-3.508.337-.582.772-1.036 1.28-1.343.515-.312 1.102-.476 1.74-.476.78 0 1.633.245 2.527.76zm3.725 5.055c-1.038-1.95-2.467-3.612-4.04-4.515-.79-.454-1.54-.67-2.21-.67-.523 0-1 .132-1.412.382-.42.252-.78.63-1.065 1.12-.46.792-.722 1.87-.722 3.195 0 2.07.644 4.314 1.686 6.273 1.04 1.95 2.467 3.612 4.04 4.516.79.454 1.54.67 2.21.67.522 0 1-.132 1.412-.383.42-.253.78-.63 1.065-1.12.46-.79.72-1.87.72-3.195 0-2.07-.643-4.315-1.685-6.273z" fill="#3EC9F0"/><path fill="#3EC9F0" d="M53.767 126.42l25.982-11.767.262.568-25.984 11.766-.26-.567M79.424 112.916c.966.555 1.747 2.027 1.747 3.286 0 1.26-.78 1.83-1.746 1.277-.965-.556-1.748-2.028-1.748-3.288 0-1.26.783-1.832 1.748-1.276"/><path d="M13.393 96.078c.205-.158 2.053-1.397 2.298-1.58 1.605-1.183 2.57-1.048 4.13-.152l36.828 21.14c1.887 1.08 3.43 4.014 3.43 6.515v29.112c0 1.64-.496 3.175-1.998 4.15-.997.65-2.172 1.445-2.85 1.775l-.028.018-.02.012-.01.004-.028.018-.026.013-.004.003-.058.03h-.003v.002l-.06.025-.004.003-.007.002-.05.02-.01.004-.022.007-.03.01-.017.006c-.046.015-.09.028-.138.038l-.008.003-.064.013-.003.002-.066.01h-.003l-.032.005-.033.004h-.007c-.075.01-.15.013-.228.01H54.186l-.07-.006h-.003l-.072-.007h-.004l-.033-.005-.038-.005h-.01v-.002c-.072-.01-.144-.024-.217-.043l-.027-.008-.012-.003-.037-.013-.032-.008-.007-.002-.038-.012-.038-.013-.08-.028-.004-.003-.076-.03-.01-.004-.03-.012-.04-.017-.016-.007-.023-.01-.062-.028-.02-.01-.04-.02-.028-.014-.013-.006-.04-.02-.035-.02-.005-.004-.042-.02-.042-.025-37.412-21.474-.042-.026-.043-.025v-.003l-.04-.025-.042-.025-.008-.006-.005-.002c-.05-.032-.102-.068-.152-.103l-.017-.01-.024-.02-.04-.03-.02-.014-.022-.014-.042-.03-.022-.02-.018-.013-.067-.054-.013-.012-.04-.033-.03-.025-.01-.007-.04-.035-.033-.03-.006-.005-.01-.01-.066-.06h-.002l-.04-.037-.038-.037-.002-.002-.038-.036-.037-.038-.04-.038-.037-.038-.01-.01-.028-.03-.038-.038-.012-.014-.025-.027-.038-.042-.036-.04-.036-.042-.037-.04-.036-.044-.022-.025-.014-.017-.036-.043-.026-.03-.01-.013-.035-.045-.036-.045-.034-.044-.03-.04-.005-.004-.033-.045-.034-.044-.035-.047-.034-.047-.002-.005-.032-.043-.033-.046-.006-.01-.027-.04-.033-.047-.008-.012-.023-.035-.034-.05-.01-.016-.02-.03-.034-.05-.014-.024-.018-.026-.03-.05-.018-.028-.014-.023-.03-.05-.02-.034-.01-.02-.03-.05-.023-.036-.008-.013-.03-.053-.024-.042-.004-.01-.03-.05c-.674-1.218-1.094-2.642-1.094-3.95V98.888c0-1.434.508-2.427 1.297-2.81" fill="#DBEEF7"/><path d="M11.5 95.17v-.01l.04-.033c.256-.264.545-.484.86-.656l2.168-1.477c1.144-.847 2.132-1.222 3.197-1.227h.007c1.026-.003 1.93.347 2.99.954h.006l36.827 21.14v.002c1.258.725 2.37 2.005 3.147 3.48.76 1.442 1.23 3.11 1.23 4.66v29.11c0 1.053-.17 2.097-.598 3.074-.455 1.037-1.177 1.95-2.257 2.65l-.004-.005-.55.362c-.843.552-1.72 1.128-2.374 1.465-.115.074-.24.13-.364.187l.003.005c-.202.088-.376.134-.58.207-.265.068-.492.092-.762.115l-.218.003v.007c-.226 0-.462-.042-.684-.064v-.005c-.144-.027-.303-.058-.443-.098l-.01-.008-.074-.023-.002.006-.098-.033-.008-.008-.038-.008-.08-.028c-.12-.06-.287-.114-.422-.176l.002-.003c-.03-.014-.322-.148-.317-.16-.034-.02-.067-.042-.106-.056-8.534-4.9-21.133-11.383-30.718-17.354-2.82-1.757-5.526-3.048-7.61-4.77h-.01l-.158-.14-.004.003-.09-.085.003-.006-.06-.056h-.007l-.084-.074.002-.005-.064-.06c-.037-.02-.058-.06-.09-.09v.003c-.338-.334-.684-.772-.96-1.16l.006-.002-.125-.168-.008-.023-.15-.232h-.007c-.023-.037-.213-.367-.22-.362-.016-.027-.09-.172-.103-.185-.405-.735-.74-1.55-.972-2.39-.23-.83-.358-1.667-.358-2.462V98.887c0-.97.186-1.833.517-2.55.207-.45.468-.84.78-1.168zm4.204 1.603l-.417.283v.198l-1.065.515c-.01.005-.035.047-.07.125-.103.225-.162.557-.162.992v30.016c0 .488.075.99.21 1.478.147.528.37 1.062.647 1.566.044.093.11.19.16.286h.004l.056.085-.005.002.004.004.005-.002.065.1-.004.004.022.03.005-.003c.084.122.154.224.244.34l-.003.003c.09.112.187.222.278.333l.003-.004.087.094.003-.002.043.05.005-.002.038.037-.004.004.08.07-.002.003c.055.044.098.093.152.134l-.002.003.16.122-.002.002c.06.044.135.092.2.128-.003.008 34.33 19.707 37.45 21.497l-.002.005c.13.07.25.11.394.146l.125-.065c.445-.216 1.284-.77 2.09-1.296l.552-.362v-.006c.42-.275.697-.62.866-1.004.195-.446.274-.988.274-1.574v-29.11c0-.954-.302-2.003-.786-2.924-.464-.88-1.065-1.61-1.69-1.97H55.7L18.874 95.973l.002-.004c-.494-.283-.85-.447-1.096-.45h-.008c-.207.004-.503.155-.955.49-.184.133-.637.442-1.113.765z" fill="#2EBCE3"/><path d="M55.23 157.037L19.237 133.12c-1.81-1.204-3.234-4.024-3.43-6.517l-2.413-30.526c.205-.157 2.053-1.396 2.298-1.578 1.605-1.185 2.57-1.05 4.13-.154l36.828 21.14c1.887 1.08 3.43 4.014 3.43 6.515v29.112c0 1.64-.496 3.175-1.998 4.15-.997.65-2.172 1.445-2.85 1.775" fill="#DBEEF7"/><path d="M55.056 157.297L19.06 133.38c-.938-.623-1.772-1.652-2.4-2.844-.64-1.214-1.067-2.606-1.17-3.908l-2.425-30.694.134-.104c.11-.084.7-.486 1.26-.866.48-.328.942-.64 1.045-.716.858-.634 1.56-.915 2.266-.918.703-.002 1.38.27 2.207.745l36.83 21.14c.994.57 1.896 1.62 2.542 2.85.643 1.225 1.044 2.635 1.044 3.936v29.112c0 .857-.132 1.693-.463 2.45-.334.764-.87 1.44-1.677 1.963l-.553.36c-.86.564-1.76 1.154-2.33 1.434l-.163.076-.15-.1zM19.41 132.86l35.842 23.816c.543-.29 1.338-.81 2.103-1.312l.553-.363c.695-.45 1.157-1.032 1.446-1.69.292-.665.408-1.417.408-2.198v-29.11c0-1.202-.372-2.51-.97-3.646-.597-1.13-1.41-2.09-2.302-2.6l-36.827-21.14c-.733-.42-1.318-.662-1.89-.66-.564 0-1.15.246-1.893.794-.127.094-.585.404-1.064.73l-1.094.75 2.398 30.35c.097 1.22.498 2.525 1.098 3.666.58 1.104 1.345 2.05 2.192 2.614z" fill="#2EBCE3"/><path d="M22.522 105.022c2.105 1.218 3.813 4.308 3.813 6.9 0 2.592-1.704 3.707-3.813 2.49-2.105-1.22-3.815-4.307-3.815-6.902.002-2.59 1.708-3.704 3.815-2.488" fill="#F4B728"/><path d="M52.938 156.893L15.526 135.42c-1.887-1.085-3.43-4.016-3.43-6.517V98.887c0-2.5 1.543-3.66 3.43-2.578l37.412 21.474c1.888 1.083 3.43 4.015 3.43 6.517v30.014c0 2.502-1.542 3.662-3.43 2.58" fill="#FFFFFE"/><path d="M52.782 157.164L15.368 135.69c-.995-.573-1.895-1.622-2.543-2.854-.644-1.224-1.044-2.634-1.044-3.933V98.887c0-.876.182-1.607.5-2.154.212-.363.483-.648.8-.842.325-.197.693-.3 1.092-.3.47 0 .98.144 1.512.448l37.412 21.474c.996.573 1.897 1.624 2.545 2.853.645 1.224 1.045 2.635 1.045 3.936v30.014c0 .877-.183 1.607-.5 2.155-.212.364-.484.648-.8.842-.325.197-.693.302-1.092.302-.468 0-.98-.146-1.51-.45zm-37.097-22.016l37.41 21.475c.43.245.834.363 1.198.363.282 0 .54-.072.762-.21.23-.14.428-.35.586-.62.262-.45.413-1.075.413-1.842V124.3c0-1.2-.372-2.508-.97-3.645-.595-1.13-1.41-2.09-2.3-2.6L15.368 96.58c-.428-.245-.833-.363-1.196-.363-.28 0-.54.072-.762.208-.23.14-.426.35-.585.62-.263.453-.414 1.077-.414 1.842v30.016c0 1.2.375 2.507.973 3.645.595 1.13 1.41 2.09 2.302 2.6z" fill="#2EBCE3"/><path d="M56.37 152.04l-.08-2.18-10.422-24.907c-1.082-2.585-2.862-4.628-5.193-2.173l-8.922 6.722-2.065-5.528c-.878-2.35-2.298-3.01-4.114-1.493L13.19 132.85c.614 1.114 1.436 2.05 2.336 2.57l37.412 21.473c1.888 1.083 3.43-.077 3.43-2.58v-2.274" fill="#2EBCE3"/><path d="M20.63 106.21c2.105 1.218 3.815 4.307 3.815 6.898 0 2.594-1.705 3.71-3.815 2.49-2.105-1.22-3.813-4.305-3.813-6.9 0-2.59 1.707-3.705 3.813-2.488" fill="#F4B728"/><path d="M73.54 112.157l-1.89-1.095c-.194-.113-.258-.362-.144-.555.112-.19.362-.255.557-.142l1.5.87-.024.922zM57.34 101.725c.193.113.257.363.142.555-.11.192-.363.255-.555.142l-1.033-.604-.047-.968 1.492.875zm5.607 3.292c.194.113.257.362.143.554-.114.193-.363.257-.556.143l-2.104-1.236c-.195-.11-.257-.36-.143-.552.114-.193.364-.26.558-.144l2.1 1.237zm5.607 3.29c.194.114.258.362.143.556-.112.193-.364.256-.557.143l-2.104-1.236c-.194-.11-.257-.36-.143-.552.11-.192.363-.256.555-.143l2.105 1.233z" fill="#3EC9F0"/></g></svg>