
<svg width="323" height="224" viewBox="0 0 323 224" fill="none" xmlns="http://www.w3.org/2000/svg">
<path d="M318.62 9.02973C316.4 9.02973 314.59 7.22973 314.59 4.99973C314.59 2.76973 316.39 0.969727 318.62 0.969727C320.84 0.969727 322.65 2.76973 322.65 4.99973C322.65 7.22973 320.85 9.02973 318.62 9.02973Z" fill="#F1F2F0"/>
<path d="M318.62 30.6293C316.4 30.6293 314.59 28.8293 314.59 26.5993C314.59 24.3793 316.39 22.5693 318.62 22.5693C320.84 22.5693 322.65 24.3693 322.65 26.5993C322.65 28.8193 320.85 30.6293 318.62 30.6293Z" fill="#F1F2F0"/>
<path d="M318.62 52.2299C316.4 52.2299 314.59 50.4299 314.59 48.1999C314.59 45.9699 316.39 44.1699 318.62 44.1699C320.84 44.1699 322.65 45.9699 322.65 48.1999C322.65 50.4299 320.85 52.2299 318.62 52.2299Z" fill="#F1F2F0"/>
<circle cx="301.94" cy="4.99973" r="4.03" fill="#F1F2F0"/>
<path fill-rule="evenodd" clip-rule="evenodd" d="M301.94 30.6293C299.72 30.6293 297.91 28.8293 297.91 26.5993C297.91 24.3793 299.71 22.5693 301.94 22.5693C304.16 22.5693 305.97 24.3693 305.97 26.5993C305.97 28.8193 304.16 30.6293 301.94 30.6293Z" stroke="#F1F2F0"/>
<circle cx="301.94" cy="48.1999" r="4.03" fill="#F1F2F0"/>
<circle cx="285.25" cy="4.99973" r="4.03" fill="#F1F2F0"/>
<path d="M285.25 30.6293C283.03 30.6293 281.22 28.8293 281.22 26.5993C281.22 24.3793 283.02 22.5693 285.25 22.5693C287.48 22.5693 289.28 24.3693 289.28 26.5993C289.28 28.8193 287.48 30.6293 285.25 30.6293Z" fill="#F1F2F0"/>
<circle cx="285.25" cy="48.1999" r="4.03" fill="#F1F2F0"/>
<circle cx="268.56" cy="4.99973" r="4.03" fill="#F1F2F0"/>
<path d="M268.56 30.6293C266.34 30.6293 264.53 28.8293 264.53 26.5993C264.53 24.3793 266.33 22.5693 268.56 22.5693C270.79 22.5693 272.59 24.3693 272.59 26.5993C272.59 28.8193 270.79 30.6293 268.56 30.6293Z" fill="#F1F2F0"/>
<circle cx="268.56" cy="48.1999" r="4.03" fill="#F1F2F0"/>
<circle cx="251.88" cy="4.99973" r="4.03" stroke="#F1F2F0"/>
<path d="M251.88 30.6293C249.66 30.6293 247.85 28.8293 247.85 26.5993C247.85 24.3793 249.65 22.5693 251.88 22.5693C254.1 22.5693 255.91 24.3693 255.91 26.5993C255.91 28.8193 254.1 30.6293 251.88 30.6293Z" fill="#F1F2F0"/>
<circle cx="251.88" cy="48.1999" r="4.03" fill="#F1F2F0"/>
<path d="M71.77 180.06C69.55 180.06 67.74 178.26 67.74 176.03C67.74 173.8 69.54 172 71.77 172C73.99 172 75.8 173.8 75.8 176.03C75.8 178.26 74 180.06 71.77 180.06Z" fill="#F1F2F0"/>
<path d="M71.77 201.66C69.55 201.66 67.74 199.86 67.74 197.63C67.74 195.41 69.54 193.6 71.77 193.6C73.99 193.6 75.8 195.4 75.8 197.63C75.8 199.85 74 201.66 71.77 201.66Z" fill="#F1F2F0"/>
<path d="M71.77 223.26C69.55 223.26 67.74 221.46 67.74 219.23C67.74 217 69.54 215.2 71.77 215.2C73.99 215.2 75.8 217 75.8 219.23C75.8 221.46 74 223.26 71.77 223.26Z" fill="#F1F2F0"/>
<circle cx="55.0901" cy="176.03" r="4.03" fill="#F1F2F0"/>
<path fill-rule="evenodd" clip-rule="evenodd" d="M55.0901 201.66C52.8701 201.66 51.0601 199.86 51.0601 197.63C51.0601 195.41 52.8601 193.6 55.0901 193.6C57.3101 193.6 59.1201 195.4 59.1201 197.63C59.1201 199.85 57.3101 201.66 55.0901 201.66Z" stroke="#F1F2F0"/>
<circle cx="55.0901" cy="219.23" r="4.03" fill="#F1F2F0"/>
<circle cx="38.4001" cy="176.03" r="4.03" fill="#F1F2F0"/>
<path d="M38.4001 201.66C36.1801 201.66 34.3701 199.86 34.3701 197.63C34.3701 195.41 36.1701 193.6 38.4001 193.6C40.6301 193.6 42.4301 195.4 42.4301 197.63C42.4301 199.85 40.6301 201.66 38.4001 201.66Z" fill="#F1F2F0"/>
<circle cx="38.4001" cy="219.23" r="4.03" fill="#F1F2F0"/>
<circle cx="21.7099" cy="176.03" r="4.03" fill="#F1F2F0"/>
<path d="M21.7099 201.66C19.4899 201.66 17.6799 199.86 17.6799 197.63C17.6799 195.41 19.4799 193.6 21.7099 193.6C23.9399 193.6 25.7399 195.4 25.7399 197.63C25.7399 199.85 23.9399 201.66 21.7099 201.66Z" fill="#F1F2F0"/>
<circle cx="21.7099" cy="219.23" r="4.03" fill="#F1F2F0"/>
<circle cx="5.03" cy="176.03" r="4.03" stroke="#F1F2F0"/>
<path d="M5.03 201.66C2.81 201.66 1 199.86 1 197.63C1 195.41 2.8 193.6 5.03 193.6C7.25 193.6 9.06 195.4 9.06 197.63C9.06 199.85 7.25 201.66 5.03 201.66Z" fill="#F1F2F0"/>
<circle cx="5.03" cy="219.23" r="4.03" fill="#F1F2F0"/>
<circle cx="161" cy="112" r="80" fill="#EAE6FF"/>
<path fill-rule="evenodd" clip-rule="evenodd" d="M161.109 92.0762C161.109 84.411 167.348 78.1719 175.013 78.1719C182.678 78.1719 188.917 84.411 188.917 92.0762C188.917 99.7414 182.678 105.981 175.013 105.981C167.348 105.981 161.109 99.7414 161.109 92.0762ZM176.466 94.8772L180.281 101.495H177.102L173.627 95.4459H168.972V92.6025H173.06C174.407 92.6025 175.402 92.2923 176.046 91.6719C176.689 91.0515 177.011 90.2157 177.011 89.1645V88.8026H167.632V86.9932H176.534C176.216 86.4073 175.751 85.9592 175.137 85.649C174.524 85.3388 173.764 85.1924 172.855 85.2096H167.632V83.4001H182.098V85.2096H178.533C179.002 85.6921 179.365 86.2866 179.623 86.9932H182.098V88.8026H179.963C179.978 88.9233 179.986 89.0956 179.986 89.3196C179.986 90.681 179.679 91.8313 179.066 92.7705C178.453 93.7097 177.586 94.4119 176.466 94.8772Z" fill="#6353B3"/>
<path fill-rule="evenodd" clip-rule="evenodd" d="M201.931 90.7394C202.822 91.4525 202.822 92.7894 201.931 93.4133L197.117 96.8894C196.494 97.3351 196.315 98.1372 196.583 98.8503L198.989 104.287C199.435 105.357 198.722 106.515 197.652 106.605L191.77 107.318C191.057 107.407 190.433 107.942 190.344 108.744L189.631 114.626C189.452 115.696 188.294 116.409 187.313 115.963L181.876 113.557C181.163 113.289 180.361 113.468 179.915 114.092L176.35 118.905C175.637 119.796 174.3 119.796 173.676 118.905L170.111 114.092C169.665 113.468 168.863 113.289 168.15 113.557L162.713 115.963C161.644 116.409 160.485 115.696 160.396 114.626L159.683 108.744C159.594 108.031 159.059 107.407 158.257 107.318L152.374 106.605C151.304 106.426 150.591 105.268 151.037 104.287L153.444 98.8503C153.711 98.1372 153.533 97.3351 152.909 96.8894L148.096 93.3242C147.204 92.6112 147.204 91.2742 148.096 90.6503L152.909 87.0851C153.533 86.6394 153.711 85.8372 153.444 85.1242L151.037 79.6872C150.591 78.6177 151.304 77.459 152.374 77.3698L158.257 76.6568C158.97 76.5677 159.594 76.0329 159.683 75.2307L160.396 69.3481C160.574 68.2785 161.733 67.5655 162.713 68.0111L168.15 70.4177C168.863 70.6851 169.665 70.5068 170.111 69.8829L173.676 65.0698C174.389 64.1785 175.726 64.1785 176.35 65.0698L179.915 69.8829C180.361 70.5068 181.163 70.6851 181.876 70.4177L187.313 68.0111C188.383 67.5655 189.541 68.2785 189.631 69.3481L190.344 75.3198C190.433 76.0329 190.967 76.6568 191.77 76.7459L197.652 77.459C198.722 77.6372 199.435 78.7959 198.989 79.7764L196.583 85.2133C196.315 85.9264 196.494 86.7285 197.117 87.1742L201.931 90.7394ZM157.633 92.0764C157.633 101.702 165.476 109.457 175.013 109.457C184.55 109.457 192.394 101.613 192.394 92.0764C192.394 82.4503 184.55 74.6959 175.013 74.6959C165.387 74.6959 157.633 82.5394 157.633 92.0764Z" fill="#6353B3"/>
<path d="M195.424 119.083C194.265 118.548 192.928 118.548 191.769 119.083L175.904 126.659C176.083 127.55 175.993 128.531 175.726 129.422C174.835 132.631 171.804 134.591 168.506 134.146L154.869 132.096C153.889 132.007 153.265 131.115 153.354 130.135C153.533 129.155 154.424 128.531 155.315 128.62L169.13 130.759C170.646 131.026 172.072 130.046 172.428 128.62C172.785 127.194 172.072 125.678 170.735 125.144L156.741 118.905C153.978 117.657 150.68 117.568 147.828 118.726L138.469 122.47V145.02L160.396 148.941C164.941 149.744 169.665 148.496 173.23 145.555L196.404 126.391C197.652 125.322 198.187 123.628 197.83 122.024C197.474 120.687 196.583 119.618 195.424 119.083Z" fill="#B2A5F2"/>
<path d="M132.319 119.617H124.03C122.604 119.617 121.356 120.776 121.356 122.291V146.356C121.356 147.782 122.515 149.03 124.03 149.03H132.319C133.746 149.03 134.993 147.872 134.993 146.356V122.291C134.904 120.776 133.746 119.617 132.319 119.617Z" fill="#B2A5F2"/>
</svg>
