
<svg width="1440" height="887" viewBox="0 0 1440 887" fill="none" xmlns="http://www.w3.org/2000/svg">
<path d="M929.819 831.387C1066.86 872.451 1211.84 832.049 1350.2 768.466C1380.8 754.333 1411.09 739.054 1440 722.586V887H0V0.131836H987C940.797 39.075 895.19 86.6194 852.5 139C746.578 267.491 658.394 425.382 661.042 546.587C663.69 667.13 792.783 790.323 929.819 831.387Z" fill="white"/>
<mask id="mask0" mask-type="alpha" maskUnits="userSpaceOnUse" x="0" y="0" width="1440" height="887">
<path d="M929.819 831.387C1066.86 872.451 1211.84 832.049 1350.2 768.466C1380.8 754.333 1411.09 739.054 1440 722.586V887H0V0.131836H987C940.797 39.075 895.19 86.6194 852.5 139C746.578 267.491 658.394 425.382 661.042 546.587C663.69 667.13 792.783 790.323 929.819 831.387Z" fill="white"/>
</mask>
<g mask="url(#mask0)">
<path opacity="0.665737" d="M1143.21 253.685C1224.14 493.515 1069.38 819.911 815.243 1001.56C561.103 1184.62 208.997 1222.94 -30.9455 1059.74C-272.308 896.543 -401.508 530.412 -306.383 272.133C-211.258 12.4358 108.193 -139.409 426.224 -137.99C744.254 -137.99 1062.28 15.274 1143.21 253.685Z" fill="url(#paint0_linear)"/>
</g>
<defs>
<linearGradient id="paint0_linear" x1="-524.611" y1="237.905" x2="16.7112" y2="1399.45" gradientUnits="userSpaceOnUse">
<stop stop-color="#FFF7E2"/>
<stop offset="0.493928" stop-color="#F5FFFD"/>
<stop offset="1" stop-color="white"/>
</linearGradient>
</defs>
</svg>
