<svg xmlns="http://www.w3.org/2000/svg" width="24" height="14" viewBox="0 0 24 14">
    <defs>
        <linearGradient id="prefix__a" x1="3.308%" x2="96.911%" y1="58.297%" y2="42.763%">
            <stop offset=".066%" stop-color="#FF2360"/>
            <stop offset="100%" stop-color="#FF710A"/>
        </linearGradient>
    </defs>
    <path fill="url(#prefix__a)" d="M12.142.105C6.648.105 1.775 5.203.542 6.43c-.163.163-.255.384-.255.614 0 .231.092.452.255.615 1.233 1.226 6.106 6.325 11.6 6.325 6.407 0 10.535-5.264 11.6-6.325.164-.163.256-.384.256-.615 0-.23-.092-.451-.255-.614-1.066-1.06-5.194-6.325-11.6-6.325zm0 1.735c4.909 0 8.135 3.46 9.785 5.204-1.65 1.745-4.878 5.205-9.785 5.205-3.89 0-7.963-3.538-9.712-5.205C4.177 5.38 8.25 1.84 12.142 1.84zm0 .867c-2.384 0-4.336 1.952-4.336 4.337 0 2.386 1.952 4.338 4.336 4.338.313.004.604-.16.762-.43.158-.27.158-.605 0-.875s-.449-.435-.762-.43c-1.447 0-2.601-1.155-2.601-2.603 0-1.447 1.154-2.602 2.601-2.602 1.448 0 2.602 1.155 2.602 2.602-.004.313.16.604.43.762.27.158.605.158.875 0s.434-.449.43-.762c0-2.385-1.952-4.337-4.337-4.337z"/>
</svg>
