<svg width="16" height="16" viewBox="0 0 16 16" fill="none" xmlns="http://www.w3.org/2000/svg">
<path fill-rule="evenodd" clip-rule="evenodd" d="M12.0577 14.9038C10.8141 15.6346 9.46154 16 8 16C6.53846 16 5.1859 15.6346 3.94231 14.9038C2.73718 14.1987 1.78846 13.2436 1.09615 12.0385C0.365385 10.7949 0 9.44872 0 8C0 6.55128 0.365385 5.20513 1.09615 3.96154C1.80128 2.75641 2.75641 1.80128 3.96154 1.09615C5.20513 0.365385 6.55128 0 8 0C9.46154 0 10.8141 0.365385 12.0577 1.09615C13.2628 1.78846 14.2115 2.73718 14.9038 3.94231C15.6346 5.1859 16 6.53846 16 8C16 9.46154 15.6346 10.8141 14.9038 12.0577C14.2115 13.2628 13.2628 14.2115 12.0577 14.9038ZM2.40385 8L6.38462 12.0192L13.5962 4.80769L12.4615 3.63462L6.38462 9.73077L3.53846 6.86538L2.40385 8Z" fill="#00AB4D"/>
</svg>
