<svg xmlns="http://www.w3.org/2000/svg" width="80" height="80" viewBox="0 0 80 80" fill="none"><circle cx="40" cy="40" r="40" fill="#C38464" fill-opacity="0.2"></circle><path d="M26.24 26H53.74L51.86 24H27.86L26.24 26ZM57.08 26.46C57.66 27.14 58 28 58 29V54C58 55.0609 57.5786 56.0783 56.8284 56.8284C56.0783 57.5786 55.0609 58 54 58H26C24.9391 58 23.9217 57.5786 23.1716 56.8284C22.4214 56.0783 22 55.0609 22 54V29C22 28 22.34 27.14 22.92 26.46L25.68 23.1C26.24 22.42 27.06 22 28 22H52C52.94 22 53.76 22.42 54.3 23.1L57.08 26.46ZM28 52H40V46H28V52Z" fill="#C38464"></path></svg>