<svg xmlns="http://www.w3.org/2000/svg" width="80" height="80" viewBox="0 0 80 80" fill="none"><circle cx="40" cy="40" r="40" fill="#C38464" fill-opacity="0.2"></circle><path d="M40 21C29.5234 21 21 29.5234 21 40C21 50.4766 29.5234 59 40 59C50.4766 59 59 50.4766 59 40C59 29.5234 50.4766 21 40 21ZM41.9 49.3385V51.4H38.1V49.348C33.6559 48.6507 32.4 45.5442 32.4 43.8H36.2C36.2209 44.0717 36.5021 45.7 40 45.7C42.622 45.7 43.8 44.5885 43.8 43.8C43.8 43.1844 43.8 41.9 40 41.9C33.388 41.9 32.4 38.328 32.4 36.2C32.4 33.7528 34.3551 31.2904 38.1 30.6615V28.6228H41.9V30.7299C45.1946 31.5089 46.46 34.2506 46.46 36.2H44.56L42.66 36.2342C42.6334 35.5122 42.2515 34.3 40 34.3C37.5319 34.3 36.2 35.2804 36.2 36.2C36.2 36.9106 36.2 38.1 40 38.1C46.612 38.1 47.6 41.672 47.6 43.8C47.6 46.2472 45.6449 48.7096 41.9 49.3385Z" fill="#C38464"></path></svg>