<svg xmlns="http://www.w3.org/2000/svg" width="80" height="80" viewBox="0 0 80 80" fill="none"><circle cx="40" cy="40" r="40" fill="#C38464" fill-opacity="0.2"></circle><path d="M22 29.2C22 26.491 23.404 23.656 25.6 22C25.6 23.521 26.842 25.6 29.2 25.6C30.6322 25.6 32.0057 26.1689 33.0184 27.1816C34.0311 28.1943 34.6 29.5678 34.6 31C34.6 31.6948 34.456 32.3536 34.2184 32.962C35.5504 34.0312 36.8752 35.104 38.1604 36.22L34.42 39.964C33.3117 38.6688 32.2273 37.3534 31.1674 36.0184C30.5554 36.256 29.8966 36.4 29.2 36.4C25.222 36.4 22 33.178 22 29.2ZM43.8736 41.5264L46.2856 39.1144C47.4045 39.6882 48.6425 39.9916 49.9 40C52.0483 40 54.1085 39.1466 55.6276 37.6276C57.1466 36.1085 58 34.0483 58 31.9C58 30.595 57.6616 29.38 57.1126 28.2874L50.8 34.6L47.2 31L53.5126 24.6874C52.3947 24.1122 51.1572 23.8082 49.9 23.8C47.7517 23.8 45.6915 24.6534 44.1724 26.1724C42.6534 27.6915 41.8 29.7517 41.8 31.9C41.8 33.205 42.1384 34.42 42.6874 35.5126L23.8 54.4L27.4 58L39.7264 45.6736C43.1169 49.152 46.7093 52.4276 50.485 55.4836L53.05 57.55L55.75 54.85L53.68 52.285C50.6263 48.5085 47.3518 44.916 43.8736 41.5264Z" fill="#C38464"></path></svg>