<svg xmlns="http://www.w3.org/2000/svg" width="80" height="80" viewBox="0 0 80 80" fill="none"><circle cx="40" cy="40" r="40" fill="#C38464" fill-opacity="0.2"></circle><path d="M24.4545 26C23.5383 26 22.6597 26.364 22.0118 27.0118C21.364 27.6597 21 28.5383 21 29.4545V48.4545H24.4545C24.4545 49.8288 25.0005 51.1469 25.9723 52.1186C26.944 53.0904 28.2621 53.6364 29.6364 53.6364C31.0107 53.6364 32.3287 53.0904 33.3005 52.1186C34.2722 51.1469 34.8182 49.8288 34.8182 48.4545H45.1818C45.1818 49.8288 45.7278 51.1469 46.6995 52.1186C47.6713 53.0904 48.9893 53.6364 50.3636 53.6364C51.7379 53.6364 53.056 53.0904 54.0277 52.1186C54.9995 51.1469 55.5455 49.8288 55.5455 48.4545H59V39.8182L53.8182 32.9091H48.6364V26H24.4545ZM36.5455 29.4545L43.4545 36.3636L36.5455 43.2727V38.0909H26.1818V34.6364H36.5455V29.4545ZM48.6364 35.5H52.9545L56.3573 39.8182H48.6364V35.5ZM29.6364 45.8636C30.3235 45.8636 30.9825 46.1366 31.4684 46.6225C31.9543 47.1084 32.2273 47.7674 32.2273 48.4545C32.2273 49.1417 31.9543 49.8007 31.4684 50.2866C30.9825 50.7725 30.3235 51.0455 29.6364 51.0455C28.9492 51.0455 28.2902 50.7725 27.8043 50.2866C27.3184 49.8007 27.0455 49.1417 27.0455 48.4545C27.0455 47.7674 27.3184 47.1084 27.8043 46.6225C28.2902 46.1366 28.9492 45.8636 29.6364 45.8636ZM50.3636 45.8636C51.0508 45.8636 51.7098 46.1366 52.1957 46.6225C52.6816 47.1084 52.9545 47.7674 52.9545 48.4545C52.9545 49.1417 52.6816 49.8007 52.1957 50.2866C51.7098 50.7725 51.0508 51.0455 50.3636 51.0455C49.6765 51.0455 49.0175 50.7725 48.5316 50.2866C48.0457 49.8007 47.7727 49.1417 47.7727 48.4545C47.7727 47.7674 48.0457 47.1084 48.5316 46.6225C49.0175 46.1366 49.6765 45.8636 50.3636 45.8636Z" fill="#C38464"></path></svg>